subject_06
version=1
nRows=142
nColumns=3
inDegrees=yes
endheader
time	r_shoulder_elev	r_elbow_flex
83.8100	15.949024	23.080263
83.8200	15.949024	22.268262
83.8300	15.949024	21.065629
83.8400	15.949024	20.010379
83.8500	15.949024	19.581496
83.8600	15.949024	19.991315
83.8700	15.949024	21.093042
83.8800	15.949024	22.441247
83.8900	15.949024	23.477694
83.9000	15.949024	23.762802
83.9100	15.949024	23.156074
83.9200	15.949024	21.872684
83.9300	15.949024	20.396629
83.9400	15.949024	19.289725
83.9500	15.949024	18.975826
83.9600	15.949024	19.585452
83.9700	15.949024	20.917354
83.9800	15.949024	22.524528
83.9900	15.949024	23.883981
84.0000	15.949024	24.581442
84.0100	15.949024	24.443281
84.0200	15.949024	23.574567
84.0300	15.949024	22.300997
84.0400	15.949024	21.046701
84.0500	15.949024	20.197112
84.0600	15.949024	19.992659
84.0700	15.949024	20.480018
84.0800	15.949024	21.523702
84.0900	15.949024	22.862002
84.1000	15.949024	24.183361
84.1100	15.949024	25.201597
84.1200	15.949024	25.716105
84.1300	15.949024	25.650553
84.1400	15.949024	25.067317
84.1500	15.949024	24.155702
84.1600	15.949024	23.192868
84.1700	15.949024	22.480552
84.1800	15.949024	22.268358
84.1900	15.949024	22.682671
84.2000	15.949024	23.683920
84.2100	15.949024	25.070091
84.2200	15.949024	26.530694
84.2300	15.949024	27.737355
84.2400	15.949024	28.442222
84.2500	15.949024	28.550685
84.2600	15.949024	28.143352
84.2700	15.949024	27.441099
84.2800	15.949024	26.728418
84.2900	15.949024	26.265040
84.3000	15.949024	26.217630
84.3100	15.949024	26.631892
84.3200	15.949024	27.446580
84.3300	15.949024	28.533742
84.3400	15.949024	29.742118
84.3500	15.949024	30.925606
84.3600	15.949024	31.952469
84.3700	15.949024	32.705243
84.3800	15.949024	33.087570
84.3900	15.949024	33.048607
84.4000	15.949024	32.620817
84.4100	15.949024	31.951447
84.4200	15.949024	31.301510
84.4300	15.949024	30.994603
84.4400	15.949024	31.319614
84.4500	15.949024	32.417001
84.4600	15.949024	34.194939
84.4700	15.949024	36.318931
84.4800	15.949024	38.294398
84.4900	15.949024	39.624427
84.5000	15.949024	39.989798
84.5100	15.949024	39.381945
84.5200	15.949024	38.131099
84.5300	15.949024	36.809206
84.5400	15.949024	36.036268
84.5500	15.949024	36.259450
84.5600	15.949024	37.588727
84.5700	15.949024	39.753778
84.5800	15.949024	42.200849
84.5900	15.949024	44.293771
84.6000	15.949024	45.542486
84.6100	15.949024	45.772255
84.6200	15.949024	45.171197
84.6300	15.949024	44.202700
84.6400	15.949024	43.422032
84.6500	15.949024	43.271742
84.6600	15.949024	43.934351
84.6700	15.949024	45.293441
84.6800	15.949024	47.008278
84.6900	15.949024	48.662545
84.7000	15.949024	49.922758
84.7100	15.949024	50.645043
84.7200	15.949024	50.896444
84.7300	15.949024	50.894944
84.7400	15.949024	50.903938
84.7500	15.949024	51.129498
84.7600	15.949024	51.659537
84.7700	15.949024	52.459835
84.7800	15.949024	53.415714
84.7900	15.949024	54.391773
84.8000	15.949024	55.281320
84.8100	15.949024	56.029458
84.8200	15.949024	56.630624
84.8300	15.949024	57.113243
84.8400	15.949024	57.525614
84.8500	15.949024	57.929358
84.8600	15.949024	58.396141
84.8700	15.949024	58.997867
84.8800	15.949024	59.784132
84.8900	15.949024	60.751778
84.9000	15.949024	61.822603
84.9100	15.949024	62.848563
84.9200	15.949024	63.654605
84.9300	15.949024	64.110461
84.9400	15.949024	64.203222
84.9500	15.949024	64.073872
84.9600	15.949024	63.990154
84.9700	15.949024	64.254159
84.9800	15.949024	65.075111
84.9900	15.949024	66.460641
85.0000	15.949024	68.180309
85.0100	15.949024	69.829606
85.0200	15.949024	70.979941
85.0300	15.949024	71.358504
85.0400	15.949024	70.981281
85.0500	15.949024	70.175017
85.0600	15.949024	69.467221
85.0700	15.949024	69.380291
85.0800	15.949024	70.211680
85.0900	15.949024	71.894774
85.1000	15.949024	74.006468
85.1100	15.949024	75.927343
85.1200	15.949024	77.093731
85.1300	15.949024	77.237337
85.1400	15.949024	76.508269
85.1500	15.949024	75.423429
85.1600	15.949024	74.656050
85.1700	15.949024	74.752043
85.1800	15.949024	75.893721
85.1900	15.949024	77.814569
85.2000	15.949024	79.905830
85.2100	15.949024	81.473090
85.2200	15.949024	82.034695
